<svg width="41" height="26" viewBox="0 0 41 26" fill="none" xmlns="http://www.w3.org/2000/svg">
<path d="M35.2332 6.5H29.6838V0H3.78652C1.74249 0 0.0869141 1.45437 0.0869141 3.25V21.125H3.78652C3.78652 23.8144 6.2745 26 9.33593 26C12.3973 26 14.8853 23.8144 14.8853 21.125H25.9841C25.9841 23.8144 28.4721 26 31.5336 26C34.595 26 37.083 23.8144 37.083 21.125H40.7826V13L35.2332 6.5ZM9.33593 23.5625C7.80059 23.5625 6.56122 22.4737 6.56122 21.125C6.56122 19.7763 7.80059 18.6875 9.33593 18.6875C10.8713 18.6875 12.1106 19.7763 12.1106 21.125C12.1106 22.4737 10.8713 23.5625 9.33593 23.5625ZM34.3083 8.9375L37.9431 13H29.6838V8.9375H34.3083ZM31.5336 23.5625C29.9982 23.5625 28.7589 22.4737 28.7589 21.125C28.7589 19.7763 29.9982 18.6875 31.5336 18.6875C33.0689 18.6875 34.3083 19.7763 34.3083 21.125C34.3083 22.4737 33.0689 23.5625 31.5336 23.5625Z" fill="#FFCC00"/>
</svg>
